<?xml version="1.0" encoding="UTF-8" standalone="no"?>

<svg
   width="64"
   version="1.1"
   height="64"
   id="svg2"
   sodipodi:docname="org.kde.dolphin.svg"
   inkscape:version="1.4 (e7c3feb100, 2024-10-09)"
   inkscape:export-filename="128-apps-org.kde.dolphin.png"
   inkscape:export-xdpi="192"
   inkscape:export-ydpi="192"
   xmlns:inkscape="http://www.inkscape.org/namespaces/inkscape"
   xmlns:sodipodi="http://sodipodi.sourceforge.net/DTD/sodipodi-0.dtd"
   xmlns:xlink="http://www.w3.org/1999/xlink"
   xmlns="http://www.w3.org/2000/svg"
   xmlns:svg="http://www.w3.org/2000/svg"
   xmlns:rdf="http://www.w3.org/1999/02/22-rdf-syntax-ns#"
   xmlns:cc="http://creativecommons.org/ns#"
   xmlns:dc="http://purl.org/dc/elements/1.1/">
  <defs
     id="defs5455">
    <linearGradient
       id="linearGradient3">
      <stop
         style="stop-color:#e5fbff;stop-opacity:1;"
         offset="1"
         id="stop2" />
      <stop
         style="stop-color:#ababab;stop-opacity:0.99539232;"
         offset="1"
         id="stop3" />
    </linearGradient>
    <linearGradient
       id="linearGradient82546">
      <stop
         style="stop-color:#000000;stop-opacity:0.39814615;"
         offset="0"
         id="stop82542" />
      <stop
         style="stop-color:#000000;stop-opacity:1;"
         offset="1"
         id="stop82544" />
    </linearGradient>
    <linearGradient
       id="linearGradient39400">
      <stop
         style="stop-color:#000000;stop-opacity:1"
         offset="0"
         id="stop39396" />
      <stop
         style="stop-color:#147cdc;stop-opacity:0;"
         offset="1"
         id="stop39398" />
    </linearGradient>
    <linearGradient
       id="linearGradient919">
      <stop
         style="stop-color:#ffffff;stop-opacity:1;"
         offset="0"
         id="stop915" />
      <stop
         style="stop-color:#ffffff;stop-opacity:0;"
         offset="1"
         id="stop917" />
    </linearGradient>
    <linearGradient
       id="linearGradient4393">
      <stop
         style="stop-color:#000000;stop-opacity:1;"
         offset="0"
         id="stop4395" />
      <stop
         style="stop-color:#000000;stop-opacity:0;"
         offset="1"
         id="stop4397" />
    </linearGradient>
    <linearGradient
       id="linearGradient4227">
      <stop
         id="stop4229"
         offset="0"
         style="stop-color:#f5f5f5;stop-opacity:1" />
      <stop
         id="stop4231"
         offset="1"
         style="stop-color:#f9f9f9;stop-opacity:1" />
    </linearGradient>
    <linearGradient
       id="linearGradient4274">
      <stop
         id="stop4276"
         offset="0"
         style="stop-color:#ffffff;stop-opacity:1;" />
      <stop
         id="stop4278"
         offset="1"
         style="stop-color:#ffffff;stop-opacity:0.48760331" />
    </linearGradient>
    <linearGradient
       xlink:href="#linearGradient919"
       id="linearGradient921"
       x1="339.66766"
       y1="472.30182"
       x2="357.40253"
       y2="502.19492"
       gradientUnits="userSpaceOnUse"
       gradientTransform="translate(-317.66764,-444.30181)" />
    <linearGradient
       xlink:href="#linearGradient39400"
       id="linearGradient39402"
       x1="376.81827"
       y1="549.95038"
       x2="337.81827"
       y2="519.95038"
       gradientUnits="userSpaceOnUse"
       gradientTransform="translate(-315.81827,-491.95038)" />
    <linearGradient
       xlink:href="#linearGradient4393"
       id="linearGradient49568"
       gradientUnits="userSpaceOnUse"
       gradientTransform="translate(-353.79311,-518.23948)"
       x1="443.57144"
       y1="510.798"
       x2="443.57144"
       y2="526.79797" />
    <linearGradient
       xlink:href="#linearGradient4274"
       id="linearGradient76299"
       gradientUnits="userSpaceOnUse"
       gradientTransform="translate(-384.57143,-480.798)"
       x1="390.57144"
       y1="498.298"
       x2="442.57144"
       y2="498.298" />
    <linearGradient
       xlink:href="#linearGradient4227"
       id="linearGradient76301"
       gradientUnits="userSpaceOnUse"
       gradientTransform="translate(-384.57143,-482.798)"
       x1="396.57144"
       y1="498.798"
       x2="426.57144"
       y2="511.798" />
    <linearGradient
       xlink:href="#linearGradient82546"
       id="linearGradient82548"
       x1="357.48947"
       y1="494.85211"
       x2="384.41882"
       y2="541.49512"
       gradientUnits="userSpaceOnUse"
       gradientTransform="translate(-326.57142,-483.798)" />
    <style
       id="current-color-scheme"
       type="text/css">      .ColorScheme-Highlight {
        color:#3593e6;
      }</style>
    <linearGradient
       xlink:href="#linearGradient3"
       id="linearGradient2"
       x1="410.57144"
       y1="512.79803"
       x2="432.07144"
       y2="552.42297"
       gradientUnits="userSpaceOnUse"
       gradientTransform="translate(-385.89726,-483.798)" />
    <marker
       markerWidth="16.164833"
       markerHeight="14.025905"
       refX="8.0824165"
       refY="7.0129524"
       orient="auto"
       id="marker1511">
      <path
         style="opacity:0.507;fill:#ff0000"
         id="path1455"
         d="M 27.135224,57.45243 10.977722,57.942133 18.632377,43.704474 Z"
         transform="rotate(1.5463765,1632.5582,-370.73384)" />
    </marker>
  </defs>
  <path
     style="fill:currentColor"
     id="path76317"
     d="m 4,6.00012 v 5 22 c 0,0.55373 0.446,1 1,1 h 54 c 0.55399,0 1,-0.44627 1,-1 V 11.00989 c 0,-0.003 -0.002,-0.006 -0.002,-0.01 H 60 v -1 H 32 l -4,-4 H 4 Z"
     class="ColorScheme-Highlight" />
  <path
     style="opacity:0.35;fill:url(#linearGradient82548);fill-opacity:1"
     id="path76289"
     d="m 4,6.00012 v 5 22 c 0,0.55373 0.446,1 1,1 h 54 c 0.55399,0 1,-0.44627 1,-1 V 11.00989 c 0,-0.003 -0.002,-0.006 -0.002,-0.01 H 60 v -1 H 32 l -4,-4 H 4 Z" />
  <rect
     ry="0.99999583"
     rx="1.0000117"
     y="15.000004"
     x="6.0000114"
     height="14.999973"
     width="52.000011"
     id="rect76291"
     style="color:#000000;clip-rule:nonzero;display:inline;overflow:visible;visibility:visible;isolation:auto;mix-blend-mode:normal;color-interpolation:sRGB;color-interpolation-filters:linearRGB;solid-color:#000000;solid-opacity:1;fill:url(#linearGradient76301);fill-opacity:1;fill-rule:nonzero;stroke:none;stroke-width:1;stroke-linecap:butt;stroke-linejoin:miter;stroke-miterlimit:4;stroke-dasharray:none;stroke-dashoffset:0;stroke-opacity:1;marker:none;color-rendering:auto;image-rendering:auto;shape-rendering:auto;text-rendering:auto;enable-background:accumulate" />
  <path
     style="opacity:0.3;fill:#ffffff;fill-opacity:1;fill-rule:evenodd"
     id="path76293"
     d="m 3.00001,28 v 1 H 23 l 3,-5 -4,4 z" />
  <path
     style="opacity:0.3;fill:#ffffff;fill-opacity:1;fill-rule:evenodd"
     id="path76295"
     d="m 28,6 3,5 h 2 27 V 10 H 33 32 Z" />
  <path
     id="path76297"
     d="m 7,15 c -0.55401,0 -1,0.446 -1,1 v 1 c 0,-0.554 0.44599,-1 1,-1 h 50 c 0.55401,0 1,0.446 1,1 v -1 c 0,-0.554 -0.44599,-1 -1,-1 z"
     style="color:#000000;clip-rule:nonzero;display:inline;overflow:visible;visibility:visible;opacity:0.85;isolation:auto;mix-blend-mode:normal;color-interpolation:sRGB;color-interpolation-filters:linearRGB;solid-color:#000000;solid-opacity:1;fill:url(#linearGradient76299);fill-opacity:1;fill-rule:nonzero;stroke:none;stroke-width:1;stroke-linecap:butt;stroke-linejoin:miter;stroke-miterlimit:4;stroke-dasharray:none;stroke-dashoffset:0;stroke-opacity:1;marker:none;color-rendering:auto;image-rendering:auto;shape-rendering:auto;text-rendering:auto;enable-background:accumulate" />
  <path
     style="fill:currentColor"
     d="m 26.00001,24.00002 -4,4 h -19 v 1 h 0.002 c -5e-5,0.004 -0.002,0.008 -0.002,0.0117 V 56 57 c 0,0.554 0.44599,1 1,1 h 56 c 0.55401,0 1,-0.446 1,-1 v -1 -26.98828 -0.0117 -5 z"
     id="path889"
     class="ColorScheme-Highlight" />
  <path
     style="opacity:0.1;fill:url(#linearGradient921);fill-opacity:1"
     d="m 26.00001,24.00002 -4,4 h -19 v 1 h 0.002 c -5e-5,0.004 -0.002,0.008 -0.002,0.0117 V 56 57 c 0,0.554 0.44599,1 1,1 h 56 c 0.55401,0 1,-0.446 1,-1 v -1 -26.98828 -0.0117 -5 z"
     id="path893" />
  <path
     style="opacity:0.3;fill:url(#linearGradient39402);fill-opacity:1"
     d="m 26.00001,24.00002 -4,4 h -19 v 1 h 0.002 c -5e-5,0.004 -0.002,0.008 -0.002,0.0117 V 56 57 c 0,0.554 0.44599,1 1,1 h 56 c 0.55401,0 1,-0.446 1,-1 v -1 -26.98828 -0.0117 -5 z"
     id="path35453" />
  <path
     style="opacity:0.3;fill:#ffffff;fill-opacity:1;fill-rule:evenodd"
     id="path49671"
     d="m 3.00002,28.00002 v 1 h 19.99999 l 3,-5 -4,4 z" />
  <path
     style="color:#000000;clip-rule:nonzero;display:inline;overflow:visible;visibility:visible;opacity:0.3;isolation:auto;mix-blend-mode:normal;color-interpolation:sRGB;color-interpolation-filters:linearRGB;solid-color:#000000;solid-opacity:1;fill:#000000;fill-opacity:1;fill-rule:nonzero;stroke:none;stroke-width:1;stroke-linecap:butt;stroke-linejoin:miter;stroke-miterlimit:4;stroke-dasharray:none;stroke-dashoffset:0;stroke-opacity:1;marker:none;color-rendering:auto;image-rendering:auto;shape-rendering:auto;text-rendering:auto;enable-background:accumulate"
     d="m 4.00001,58 c -0.55401,0 -1,-0.446 -1,-1 v -1 c 0,0.554 0.44599,1 1,1 h 56 c 0.55401,0 1,-0.446 1,-1 v 1 c 0,0.554 -0.44599,1 -1,1 z"
     id="path49673" />
</svg>
